<?xml version="1.0" standalone="no"?>
<!DOCTYPE svg PUBLIC "-//W3C//DTD SVG 20010904//EN"
 "http://www.w3.org/TR/2001/REC-SVG-20010904/DTD/svg10.dtd">
<svg version="1.0" xmlns="http://www.w3.org/2000/svg"
 width="100.000000pt" height="100.000000pt" viewBox="0 0 100.000000 100.000000"
 preserveAspectRatio="xMidYMid meet">
<metadata>
Created by potrace 1.11, written by Peter Selinger 2001-2013
</metadata>
<g transform="translate(0.000000,100.000000) scale(0.100000,-0.100000)"
fill="#000000" stroke="none">
<path d="M355 957 c-130 -43 -215 -139 -245 -277 -17 -79 -9 -351 13 -409 15
-43 15 -45 -3 -58 -39 -27 -34 -138 6 -138 16 0 19 6 16 43 -5 62 9 75 74 66
48 -6 55 -4 78 19 31 31 33 61 10 153 -9 36 -14 67 -11 71 4 3 44 -23 89 -57
135 -102 180 -110 212 -38 l14 33 1 -47 c1 -39 -3 -50 -22 -63 -33 -21 -79 -5
-157 56 -71 55 -87 50 -53 -18 28 -56 64 -78 132 -78 108 0 146 54 157 223 l7
101 -27 11 c-15 5 -29 10 -32 10 -2 0 -4 -40 -4 -90 0 -53 -4 -90 -10 -90 -5
0 -10 6 -10 13 0 7 -11 46 -24 87 -41 131 -40 130 -9 130 16 -1 39 -7 53 -15
14 -8 39 -14 57 -15 41 0 53 21 53 92 0 77 18 98 81 98 42 0 55 5 80 29 35 35
37 55 7 75 -28 20 -39 20 -32 1 4 -8 4 -22 0 -30 -4 -12 -14 -7 -44 23 -22 22
-66 52 -98 68 -54 26 -69 29 -189 31 -87 2 -143 -2 -170 -10z m-75 -75 c-73
-73 -95 -136 -104 -302 -7 -108 4 -284 19 -322 5 -13 2 -18 -9 -18 -29 0 -41
75 -41 260 0 137 4 187 17 230 25 79 68 141 123 178 27 18 50 32 51 32 1 0
-24 -26 -56 -58z m352 37 c44 -11 123 -69 123 -89 0 -23 -35 -24 -58 -2 -49
45 -88 57 -182 57 -74 0 -97 -4 -132 -22 -91 -49 -121 -122 -134 -323 -8 -122
-7 -156 7 -213 13 -54 14 -70 4 -82 -18 -22 -27 -19 -40 17 -18 48 -25 335
-10 411 41 212 202 305 422 246z m162 -67 c34 -44 11 -30 -34 22 -34 38 -37
45 -14 26 17 -14 39 -35 48 -48z m-179 -7 c17 -7 40 -24 53 -37 19 -21 21 -29
12 -52 -5 -15 -10 -51 -11 -79 l0 -52 -15 50 c-18 59 -59 101 -109 111 -77 14
-145 -19 -172 -85 -9 -20 -18 -81 -21 -137 l-5 -101 -30 15 -30 15 6 86 c8
122 23 174 66 222 57 65 164 83 256 44z m-55 -145 c11 -6 24 -18 29 -28 8 -15
4 -17 -34 -14 -35 3 -45 0 -59 -19 -22 -31 -21 -41 14 -154 32 -105 37 -145
18 -145 -7 0 -36 16 -65 36 l-53 36 0 97 c0 153 22 201 92 201 22 0 48 -5 58
-10z"/>
<path d="M869 733 c0 -5 0 -98 1 -208 2 -247 -12 -304 -88 -383 -26 -26 -35
-34 -20 -18 15 17 39 58 55 91 27 58 28 67 31 244 4 200 -2 271 -22 271 -11 0
-12 -10 -4 -46 16 -74 5 -390 -16 -446 -24 -66 -85 -131 -148 -159 -75 -34
-210 -34 -285 0 -28 12 -59 31 -69 42 -9 10 -24 19 -33 19 -10 -1 0 -16 29
-42 49 -45 19 -31 -52 24 -21 16 -44 28 -50 26 -16 -6 62 -64 122 -91 38 -18
65 -21 185 -21 137 -1 141 0 207 31 157 74 208 180 208 432 0 142 -15 241 -36
241 -8 0 -14 -3 -15 -7z"/>
<path d="M745 701 c-3 -6 -8 -90 -11 -188 -7 -213 -20 -271 -72 -324 -70 -70
-212 -73 -288 -7 -30 26 -35 28 -41 13 -9 -26 8 -47 57 -73 58 -29 184 -31
246 -3 57 26 108 90 128 160 16 59 23 332 10 400 -6 31 -18 39 -29 22z"/>
</g>
</svg>
